<svg width="83" height="81" viewBox="0 0 83 81" fill="none" xmlns="http://www.w3.org/2000/svg">
<mask id="mask0_507_864" style="mask-type:luminance" maskUnits="userSpaceOnUse" x="0" y="0" width="83" height="81">
<path d="M83 0H0V80.342H83V0Z" fill="white"/>
</mask>
<g mask="url(#mask0_507_864)">
<path d="M8.12435 35.2313C7.78725 34.0138 7.7872 32.7319 8.12421 31.5144C8.46122 30.2969 9.12341 29.1867 10.0442 28.2955L29.2316 9.72256C30.1523 8.83124 31.2993 8.19026 32.557 7.86404C33.8148 7.53782 35.1391 7.53787 36.3969 7.86417L54.3515 12.521C54.5384 10.1401 55.3948 7.85397 56.8279 5.91034L35.2028 0.30207C33.6506 -0.100475 32.0164 -0.100466 30.4642 0.302096C28.912 0.704661 27.4967 1.4956 26.3604 2.59542L2.68172 25.5158C1.54551 26.6157 0.728409 27.9857 0.312529 29.4882C-0.103352 30.9906 -0.103361 32.5726 0.312502 34.0751L6.3292 55.8104C8.29607 54.3565 10.6378 53.4534 13.0987 53.2002L8.12435 35.2313Z" fill="white"/>
<path d="M69.737 26.5412L74.8775 45.1107C75.2147 46.3284 75.2143 47.6102 74.8775 48.8275C74.5403 50.0452 73.8779 51.1553 72.9572 52.0465L53.7698 70.6199C52.849 71.5112 51.7022 72.1519 50.4442 72.4783C49.1867 72.8043 47.862 72.8043 46.6045 72.4783L28.0411 67.6632C27.7796 70.0455 26.8468 72.3122 25.3446 74.216L47.799 80.04C49.351 80.4427 50.9854 80.4427 52.5374 80.04C54.0899 79.6373 55.505 78.8467 56.6415 77.7466L80.3201 54.8263C81.4565 53.7262 82.2733 52.3564 82.6893 50.8537C83.1054 49.3513 83.1054 47.7693 82.6893 46.267L76.4457 23.7179C74.5204 25.239 72.1989 26.216 69.737 26.5412Z" fill="white"/>
<path d="M6.86902 58.808C5.3483 60.2798 4.31267 62.1556 3.8931 64.1971C3.47353 66.2389 3.68886 68.3553 4.51187 70.2787C5.33483 72.2015 6.72854 73.8455 8.51666 75.0022C10.3048 76.1585 12.4071 76.776 14.5577 76.776C16.7083 76.776 18.8106 76.1585 20.5987 75.0022C22.3869 73.8455 23.7806 72.2015 24.6036 70.2787C25.4266 68.3553 25.6419 66.2389 25.2223 64.1971C24.8027 62.1556 23.7671 60.2798 22.2464 58.808C20.2057 56.8372 17.4405 55.7302 14.5577 55.7302C11.6749 55.7302 8.90977 56.8372 6.86902 58.808Z" fill="white"/>
<path d="M60.1917 6.106C58.6712 7.57797 57.6352 9.4534 57.216 11.4951C56.7963 13.5368 57.0116 15.6531 57.8346 17.5764C58.6577 19.4997 60.0512 21.1435 61.8391 22.3C63.6275 23.4566 65.7298 24.0739 67.8802 24.0739C70.031 24.0739 72.1332 23.4566 73.9216 22.3C75.7095 21.1435 77.1031 19.4997 77.9261 17.5764C78.7492 15.6531 78.9644 13.5368 78.5448 11.4951C78.1256 9.4534 77.0896 7.57797 75.5691 6.106C73.5285 4.13503 70.7631 3.02813 67.8802 3.02813C64.9976 3.02813 62.2322 4.13503 60.1917 6.106Z" fill="white"/>
<path d="M47.8832 68.0712C47.4465 68.0712 47.012 68.0158 46.5901 67.9064L29.5976 63.4989C29.031 60.5701 27.5631 57.8753 25.3865 55.7685C23.2098 53.6617 20.426 52.2405 17.4004 51.6922L12.8474 35.2452C12.6217 34.4249 12.6224 33.5615 12.8494 32.7415C13.0764 31.9215 13.5218 31.1735 14.141 30.5723L31.5819 13.6895C32.2023 13.0889 32.9751 12.657 33.8226 12.4372C34.6701 12.2174 35.5625 12.2174 36.4099 12.4373L52.926 16.7211C53.5811 19.6318 55.1291 22.283 57.3673 24.3276C59.6055 26.3722 62.4294 27.7148 65.4691 28.1795L70.1517 45.0994C70.3772 45.9201 70.3768 46.7834 70.1494 47.6032C69.9225 48.4235 69.4772 49.1714 68.8576 49.7728L51.4168 66.6552C50.9539 67.1054 50.4028 67.4628 49.7963 67.7055C49.1898 67.9487 48.5397 68.0729 47.8832 68.0712Z" fill="white"/>
</g>
</svg>
